<svg preserveAspectRatio="none" overflow="visible" style="display: block;" width="70.0028" height="82.6371" viewBox="0 0 70.0028 82.6371" fill="none" xmlns="http://www.w3.org/2000/svg">
<g id="Group">
<path id="Vector" d="M68.7923 19.786H66.6279V17.6216C66.6279 16.953 66.0861 16.4111 65.4174 16.4111C64.7487 16.4111 64.2069 16.953 64.2069 17.6216V19.786H62.0425C61.3739 19.786 60.832 20.3278 60.832 20.9965C60.832 21.6652 61.3739 22.207 62.0425 22.207H64.2069V24.3714C64.2069 25.0401 64.7487 25.5819 65.4174 25.5819C66.0861 25.5819 66.6279 25.0401 66.6279 24.3714V22.207H68.7923C69.461 22.207 70.0028 21.6652 70.0028 20.9965C70.0028 20.3278 69.461 19.786 68.7923 19.786Z" fill="#EA1C24"/>
<path id="Vector_2" d="M42.2138 12.1296L46.8218 14.6497L49.3419 19.2576C49.7279 19.963 50.4669 20.4012 51.2709 20.4012C52.0748 20.4012 52.814 19.963 53.1998 19.2576L55.7199 14.6497L60.3279 12.1296C61.0334 11.7437 61.4716 11.0046 61.4716 10.2005C61.4716 9.3966 61.0334 8.65739 60.3279 8.27164L55.7199 5.75152L53.1999 1.14369C52.814 0.438204 52.075 0 51.271 0C50.4671 0 49.7279 0.438204 49.3421 1.14369L46.8218 5.75152L42.2137 8.27164C41.5084 8.65755 41.0703 9.39676 41.0703 10.2005C41.0703 11.0046 41.5084 11.7439 42.2138 12.1296ZM48.0409 7.84441C48.4102 7.64234 48.7122 7.34035 48.9147 6.97042L51.271 2.66231L53.6276 6.97091C53.8299 7.34035 54.1318 7.64234 54.5013 7.84441L58.8097 10.2009L54.501 12.557C54.1317 12.7591 53.8297 13.061 53.6271 13.431L51.2709 17.7391L48.9142 13.4305C48.712 13.061 48.41 12.7591 48.0406 12.557L43.7321 10.2005L48.0409 7.84441Z" fill="#EA1C24"/>
<path id="Vector_3" d="M12.8696 24.9473C14.0306 29.2811 17.3112 32.5618 21.6448 33.7229L37.8977 38.0776C38.134 38.1411 38.3721 38.172 38.6074 38.1719C39.3095 38.1719 39.9851 37.8961 40.5013 37.3801C41.1905 36.6909 41.4511 35.7176 41.1989 34.7762L36.8439 18.5234C36.2847 16.4365 35.2572 14.6107 33.7898 13.0965C33.3246 12.6165 32.5583 12.6042 32.0781 13.0697C31.5979 13.535 31.586 14.3013 32.0513 14.7813C33.2284 15.9959 34.0541 17.4659 34.5056 19.15L38.8605 35.4026C38.8944 35.5293 38.8405 35.6167 38.7895 35.6681C38.7383 35.7191 38.6499 35.7723 38.5241 35.7391L22.2715 31.3845C18.7833 30.4497 16.1427 27.8091 15.208 24.3208C14.3794 21.2277 15.0466 18.0418 16.9886 15.5793L20.8598 19.4505V24.804C20.8598 25.4727 21.4016 26.0145 22.0703 26.0145C22.739 26.0145 23.2808 25.4727 23.2808 24.804V21.8715L26.1234 24.7141V28.8344C26.1234 29.503 26.6652 30.0449 27.3339 30.0449C28.0026 30.0449 28.5444 29.503 28.5444 28.8344V27.1351L31.6133 30.2038C31.8497 30.4401 32.1596 30.5583 32.4693 30.5583C32.7791 30.5583 33.089 30.4401 33.3254 30.2038C33.7982 29.7309 33.7982 28.9646 33.3254 28.4919L30.2567 25.4232H31.9559C32.6246 25.4232 33.1664 24.8813 33.1664 24.2126C33.1664 23.544 32.6246 23.0021 31.9559 23.0021H27.8357L24.9929 20.1595H27.9254C28.5941 20.1595 29.1359 19.6177 29.1359 18.949C29.1359 18.2803 28.5941 17.7385 27.9254 17.7385H22.5717L18.6999 13.8667C21.2504 11.8493 24.5476 11.212 27.739 12.1713C28.3806 12.3644 29.0544 12.0007 29.2468 11.3606C29.4392 10.7203 29.0762 10.0454 28.4361 9.8528C24.3759 8.63277 20.1769 9.49271 16.9781 12.1449L15.7535 10.9203C15.2806 10.4477 14.5143 10.4477 14.0415 10.9203C13.5688 11.3932 13.5688 12.1595 14.0415 12.6323L15.2663 13.857C12.711 16.9464 11.8139 21.0077 12.8696 24.9473Z" fill="#EA1C24"/>
<path id="Vector_4" d="M59.2025 68.7216H46.4417C46.9052 67.4657 46.6315 65.9942 45.6227 64.9853L29.2954 48.6581C27.4709 46.8338 25.0456 45.8293 22.4657 45.8293H15.3103C14.6417 45.8293 14.0998 46.3711 14.0998 47.0398C14.0998 47.7085 14.6417 48.2503 15.3103 48.2503H22.4657C24.399 48.2503 26.2164 49.0031 27.5834 50.3703C27.5834 50.3703 43.8878 66.6747 43.9106 66.6974C44.3277 67.1145 44.3396 67.8508 43.9206 68.2732C43.9174 68.2764 43.9138 68.279 43.9106 68.2822C41.6214 70.5717 37.896 70.572 35.6063 68.2822L28.5365 61.2124C28.0636 60.7398 27.2973 60.7398 26.8245 61.2124C26.3518 61.6853 26.3518 62.4516 26.8245 62.9244L33.8945 69.9942C35.5113 71.611 37.635 72.4191 39.7585 72.4191C41.2982 72.4191 42.8366 71.992 44.1829 71.1426H59.2025C63.0105 71.1426 66.1229 74.24 66.1408 78.0473C66.1437 78.6277 65.9197 79.1737 65.5106 79.5847C65.1053 79.9917 64.5675 80.2159 63.9958 80.2159H35.5229C33.4483 80.2159 31.4976 79.4079 30.0304 77.9406L15.3926 63.3032C14.1668 62.0772 12.537 61.402 10.8031 61.402H2.42118V48.2501H9.6613C10.33 48.2501 10.8718 47.7083 10.8718 47.0396C10.8718 46.3709 10.33 45.8291 9.6613 45.8291H2.38938C1.07186 45.8291 0 46.901 0 48.2183V61.4338C0 62.7513 1.07186 63.8232 2.38938 63.8232H10.8031C11.8901 63.8232 12.9119 64.2466 13.6805 65.0153L28.3183 79.6529C30.243 81.5773 32.8015 82.6371 35.5229 82.6371H63.9958C65.2163 82.6371 66.3636 82.1597 67.2264 81.2928C68.0935 80.4217 68.5678 79.2651 68.5618 78.036C68.5376 72.9001 64.3393 68.7216 59.2025 68.7216Z" fill="#EA1C24"/>
<path id="Vector_5" d="M48.2018 41.9441C48.5361 41.3652 48.3377 40.6248 47.7586 40.2907C47.1798 39.9561 46.4393 40.1547 46.1052 40.7339L45.3048 42.1204C43.2578 45.6659 43.2578 49.8991 45.3047 53.4446C47.3517 56.9901 51.0179 59.1067 55.112 59.1067C59.2058 59.1067 62.872 56.9901 64.9189 53.4447C66.966 49.8992 66.9661 45.6659 64.9191 42.1204L57.2803 28.8895C56.8277 28.1058 56.0172 27.6377 55.112 27.6377C54.2069 27.6377 53.3962 28.1056 52.9436 28.8895L48.9297 35.8414C48.5955 36.4203 48.7938 37.1607 49.3728 37.4949C49.9512 37.829 50.6919 37.6308 51.0263 37.0519L55.0402 30.1C55.0497 30.0834 55.0641 30.0587 55.1119 30.0587C55.1595 30.0587 55.174 30.0834 55.1834 30.1L62.8222 43.3309C64.4315 46.1184 64.4315 49.4468 62.822 52.2341C61.2127 55.0216 58.3304 56.6857 55.1117 56.6857C51.8931 56.6857 49.0106 55.0215 47.4014 52.2341C45.7919 49.4465 45.7921 46.1183 47.4014 43.3307L48.2018 41.9441Z" fill="#EA1C24"/>
</g>
</svg>
